PathFileType	4	(X/Y/Z)	C:/Users/beibeiliu/ov580/test_trc/User3\sequence.20_training_dense_left.trc
DataRate	CameraRate	NumFrames	NumMarkers	Units	OrigDataRate	OrigDataStartFrame	OrigNumFrames
120	120	10	19	mm	120	1	89
Frame#	Time	ThumbCMC			ThumbMCP			ThumbIP			ThumbTip			IndexMCP			IndexPIP			IndexTip			MiddleMCP			MiddlePIP			MiddleTip			RingMCP			RingPIP			RingTip			PinkyMCP			PinkyPIP			PinkyTip			BackHand1			BackHand2			BackHand3	
		X0	Y0	Z0	X1	Y1	Z1	X2	Y2	Z2	X3	Y3	Z3	X4	Y4	Z4	X5	Y5	Z5	X6	Y6	Z6	X7	Y7	Z7	X8	Y8	Z8	X9	Y9	Z9	X10	Y10	Z10	X11	Y11	Z11	X12	Y12	Z12	X13	Y13	Z13	X14	Y14	Z14	X15	Y15	Z15	X16	Y16	Z16	X17	Y17	Z17	X18	Y18	Z18	
0	0	-61.6326	16.2372	39.7111	-44.0844	8.55324	17.2273	-25.426	4.14603	-6.92319	-15.5973	-3.77134	-29.8955	-86.0131	26.0593	-35.6401	-78.4405	24.9166	-62.1495	-73.1672	17.9993	-92.4436	-111.641	23.4212	-40.8314	-114.281	19.3867	-70.4482	-114.789	4.20423	-100.311	-127.592	13.0179	-34.4095	-132.432	8.87399	-56.7689	-135.714	-4.92459	-81.8449	-146.505	0.354414	-16.3193	-151.492	-5.07889	-35.3722	-151.489	-15.5075	-59.7109	-126.857	25.3953	16.1472	-126.562	26.679	50.9958	-95.6656	34.1801	29.3597	
1	0.00833333	-63.755	14.9361	38.0238	-43.8704	9.34629	16.6211	-30.6494	3.0023	-6.83141	-16.7477	-4.60877	-28.8657	-86.9111	25.7705	-36.8296	-80.378	24.2	-66.1017	-75.3494	16.1534	-92.7706	-111.828	23.1294	-43.0909	-113.666	19.5715	-67.8243	-115.428	3.36428	-99.8568	-132.387	11.8088	-31.6523	-132.036	7.64217	-56.8867	-135.861	-7.82137	-86.1392	-144.032	-0.635365	-12.6624	-152.765	-7.71981	-39.9893	-155.687	-16.4857	-58.4483	-129.034	23.15	20.3049	-126.729	27.2724	48.4544	-95.402	32.9547	27.9451	
2	0.0166667	-63.5969	14.2653	39.9697	-45.4911	8.32103	19.2625	-26.4049	2.84468	-9.29406	-18.7199	-5.17151	-24.8743	-81.511	26.5184	-40.2319	-80.2561	23.7946	-63.7964	-71.5076	18.216	-88.6444	-113.546	22.8375	-39.4402	-113.735	18.7921	-68.8066	-112.08	5.239	-98.7907	-126.865	12.9467	-30.2333	-132.252	5.80581	-61.0553	-135.99	-8.34623	-84.8747	-145.443	-0.223121	-13.9629	-152.393	-8.0046	-37.8933	-152.745	-18.4859	-58.0894	-129.664	23.2856	19.7172	-125.748	25.2857	48.0597	-96.6251	32.2423	30.9905	
3	0.025	-59.4235	17.6346	33.7496	-44.8503	8.85855	14.2626	-28.0304	2.0226	-9.74499	-18.872	-7.02959	-26.4805	-83.5393	28.5413	-40.8375	-75.5951	27.3424	-68.362	-76.3547	19.4263	-88.9181	-110.053	25.6065	-39.4463	-113.158	20.6911	-71.9872	-113.091	6.2417	-100.095	-125.751	15.5604	-33.9447	-131.915	8.68463	-60.9884	-132.512	-2.56285	-82.4103	-138.913	1.32114	-14.5578	-146.719	-3.70265	-39.7793	-151.544	-15.1771	-60.5885	-126.846	24.0724	15.4487	-128.73	25.8211	46.0538	-94.8024	35.3104	26.872	
4	0.0333333	-62.459	18.6516	35.3033	-43.5628	8.14492	9.01952	-28.9651	-2.36696	-13.4514	-26.1239	-15.4486	-34.9025	-80.3718	34.6627	-38.7474	-77.0527	33.0575	-65.1539	-71.2826	25.8341	-90.4429	-107.794	31.8564	-46.4619	-108.756	24.939	-75.9078	-108.185	12.543	-100.976	-127.877	16.3685	-34.3167	-128.497	12.5852	-64.5357	-130.389	-2.6631	-87.8045	-141.475	1.60272	-19.0689	-141.448	-1.85046	-40.8805	-146.443	-13.5515	-63.4983	-126.978	27.799	14.5449	-122.918	30.293	42.6407	-94.7751	37.8463	25.5673	
5	0.0416667	-62.0419	18.0184	30.2625	-46.9184	3.20599	6.91872	-42.988	-12.4763	-21.1472	-49.3105	-29.0648	-39.0798	-77.5167	36.5603	-37.6534	-76.408	32.4239	-69.1299	-67.9711	26.5335	-90.1509	-108.54	31.1533	-45.4694	-106.185	28.755	-73.8916	-105.826	13.311	-102.127	-125.288	16.6408	-35.6392	-126.816	11.7444	-65.1654	-126.479	-0.674218	-86.5796	-135.341	2.76207	-21.0559	-135.712	-1.94894	-41.2404	-137.86	-14.5257	-64.5449	-122.504	28.3732	16.7192	-124.467	28.3093	43.7047	-91.3002	40.0667	26.5072	
6	0.05	-60.4054	17.2432	30.6576	-49.1948	-2.21363	3.24101	-56.0186	-19.6033	-18.0433	-74.4309	-32.7849	-32.3279	-78.852	35.3038	-42.3104	-69.8515	33.9656	-64.2669	-65.2242	24.8568	-89.285	-106.733	30.6042	-45.9067	-102.357	29.7275	-71.4685	-99.0301	15.5985	-104.573	-117.78	17.2846	-34.1989	-121.481	12.1172	-62.9416	-117.733	0.262559	-91.4325	-133.277	0.265944	-22.4499	-131.488	-4.40851	-47.6785	-130.726	-12.5007	-67.9009	-119.891	25.3178	16.552	-125.703	26.1551	44.8951	-94.9476	40.2033	28.3276	
7	0.0583333	-60.6086	16.1506	36.01	-52.7419	-4.1506	4.25929	-67.4064	-20.3094	-24.1086	-92.1281	-31.1176	-29.2844	-75.4936	36.6487	-40.2687	-65.4303	32.931	-67.6643	-62.5984	24.966	-88.4476	-102.32	32.2269	-45.2744	-99.9734	30.3524	-71.4603	-91.9892	18.7866	-106.485	-115.892	19.0721	-35.1156	-121.398	12.9702	-62.8993	-118.256	3.21686	-87.7207	-131.049	3.48287	-24.5411	-129.025	0.142301	-43.8689	-127.416	-7.39888	-70.7302	-123.74	23.9568	16.8185	-124.687	26.2608	43.1405	-91.4363	42.375	28.2371	
8	0.0666667	-62.0166	16.2058	32.9786	-58.5571	-1.20058	1.02834	-76.5388	-13.3426	-20.5731	-105.175	-19.7992	-22.7355	-73.9932	39.7666	-37.7483	-65.4407	36.4867	-68.2021	-55.7853	28.6396	-91.9825	-100.58	37.2683	-41.7731	-101.405	34.6948	-74.6332	-94.7131	25.9884	-104.176	-117.889	24.51	-36.6433	-121.628	21.2141	-62.3767	-116.871	12.9552	-90.8424	-132.447	8.59572	-19.9042	-131.45	8.45522	-42.3202	-133.684	4.54035	-68.7071	-120.356	29.0656	15.013	-124.256	29.2489	45.9927	-90.8786	42.001	29.4381	
9	0.075	-65.9803	18.6955	33.3765	-59.1836	2.25968	-2.90142	-78.0787	-8.38315	-25.3958	-106.857	-11.8966	-21.0774	-73.8533	44.6206	-39.753	-70.2385	43.0094	-64.7295	-62.9766	36.915	-91.5058	-100.504	45.0337	-44.9592	-99.2734	44.9141	-73.1606	-97.2021	36.5104	-103.864	-117.391	34.7257	-38.3302	-125.913	32.3903	-61.0684	-123.632	25.3568	-89.8999	-131.905	18.7708	-19.1787	-138.002	19.5316	-45.1321	-139.523	18.3467	-67.5719	-124.344	35.9259	14.7743	-125.115	37.2897	41.0845	-90.1617	46.8868	29.2259	
